<svg width="1600" height="900" viewBox="0 0 1600 900" fill="none" xmlns="http://www.w3.org/2000/svg">
  <defs>
    <radialGradient id="skyGlow" cx="0" cy="0" r="1" gradientUnits="userSpaceOnUse" gradientTransform="translate(800 260) rotate(90) scale(560 760)">
      <stop stop-color="#8F5CFF" stop-opacity="0.35"/>
      <stop offset="0.42" stop-color="#27E8F4" stop-opacity="0.1"/>
      <stop offset="1" stop-color="#050507" stop-opacity="0"/>
    </radialGradient>
    <linearGradient id="cloudGrad" x1="0" y1="0" x2="1" y2="1">
      <stop stop-color="#F7F5FF" stop-opacity="0.18"/>
      <stop offset="1" stop-color="#8F5CFF" stop-opacity="0.04"/>
    </linearGradient>
    <linearGradient id="islandGrad" x1="800" y1="560" x2="800" y2="860" gradientUnits="userSpaceOnUse">
      <stop stop-color="#2DE0B0" stop-opacity="0.32"/>
      <stop offset="0.5" stop-color="#1C2430" stop-opacity="0.92"/>
      <stop offset="1" stop-color="#07070A"/>
    </linearGradient>
    <linearGradient id="waterGrad" x1="0" y1="690" x2="1600" y2="900" gradientUnits="userSpaceOnUse">
      <stop stop-color="#27E8F4" stop-opacity="0"/>
      <stop offset="0.5" stop-color="#27E8F4" stop-opacity="0.12"/>
      <stop offset="1" stop-color="#8F5CFF" stop-opacity="0"/>
    </linearGradient>
    <filter id="softBlur" x="-20%" y="-20%" width="140%" height="140%">
      <feGaussianBlur stdDeviation="12"/>
    </filter>
    <filter id="glow" x="-50%" y="-50%" width="200%" height="200%">
      <feGaussianBlur stdDeviation="10" result="blur"/>
      <feColorMatrix in="blur" type="matrix" values="0 0 0 0 0.56 0 0 0 0 0.36 0 0 0 0 1 0 0 0 0.65 0"/>
      <feBlend in="SourceGraphic"/>
    </filter>
  </defs>
  <rect width="1600" height="900" fill="transparent"/>
  <ellipse cx="800" cy="260" rx="760" ry="560" fill="url(#skyGlow)"/>
  <g opacity="0.55" filter="url(#softBlur)">
    <path d="M88 348C164 292 246 307 314 340C389 376 450 356 512 326C586 290 665 292 730 340C779 376 854 382 914 350C1000 304 1092 308 1162 354C1222 394 1300 390 1370 354C1432 322 1492 318 1552 348V445H88V348Z" fill="url(#cloudGrad)"/>
  </g>
  <g opacity="0.34" filter="url(#softBlur)">
    <path d="M-60 512C46 468 132 468 234 506C332 542 410 526 490 492C576 454 668 456 746 510C814 556 920 558 1002 510C1098 454 1204 458 1292 512C1396 576 1510 556 1664 488V638H-60V512Z" fill="url(#cloudGrad)"/>
  </g>
  <g opacity="0.24">
    <circle cx="192" cy="154" r="2" fill="#F7F5FF"/>
    <circle cx="366" cy="102" r="1.5" fill="#27E8F4"/>
    <circle cx="1260" cy="144" r="2" fill="#F7F5FF"/>
    <circle cx="1418" cy="242" r="1.5" fill="#8F5CFF"/>
    <circle cx="1048" cy="88" r="1.2" fill="#F7F5FF"/>
    <circle cx="610" cy="178" r="1.4" fill="#27E8F4"/>
  </g>
  <g opacity="0.9" filter="url(#glow)">
    <path d="M164 690C312 636 454 618 586 642C676 658 732 610 818 594C958 568 1062 640 1184 634C1284 630 1394 656 1504 704C1394 754 1246 778 1076 772C938 768 838 800 690 790C482 776 316 742 164 690Z" fill="url(#islandGrad)"/>
    <path d="M284 664L364 546L456 632L554 488L678 634L784 516L896 638L1010 456L1130 644L1244 576L1336 674C1140 638 950 642 790 668C614 696 454 696 284 664Z" fill="#10141C" opacity="0.92"/>
    <path d="M352 640L424 562L478 632L554 522L650 632L742 552L822 640C662 624 510 626 352 640Z" fill="#23302B" opacity="0.78"/>
    <path d="M906 634L1010 488L1112 646L1194 594L1278 666C1154 638 1038 632 906 634Z" fill="#24312E" opacity="0.72"/>
    <path d="M782 512L820 382L858 512L846 646H794L782 512Z" fill="#141620"/>
    <path d="M762 374H878L854 334H786L762 374Z" fill="#1A1B27"/>
    <path d="M790 430H850M796 476H844M802 522H838" stroke="#F7F5FF" stroke-opacity="0.16" stroke-width="7" stroke-linecap="round"/>
    <path d="M632 658C698 624 774 618 848 646C922 674 1014 674 1090 650" stroke="#41E59D" stroke-opacity="0.22" stroke-width="7" stroke-linecap="round"/>
  </g>
  <path d="M0 740C202 690 394 720 574 748C754 776 918 704 1088 716C1248 728 1408 766 1600 726V900H0V740Z" fill="url(#waterGrad)"/>
  <path d="M0 752C248 716 390 740 568 762C742 784 894 726 1074 734C1246 742 1400 770 1600 742" stroke="#27E8F4" stroke-opacity="0.08" stroke-width="2"/>
  <path d="M0 798C226 774 430 790 604 810C806 834 928 780 1116 790C1286 800 1442 822 1600 794" stroke="#8F5CFF" stroke-opacity="0.08" stroke-width="2"/>
</svg>
